<?xml version="1.0" encoding="utf-8"?>
<!-- Generator: Adobe Illustrator 28.3.0, SVG Export Plug-In . SVG Version: 6.00 Build 0)  -->
<svg version="1.1" xmlns="http://www.w3.org/2000/svg" xmlns:xlink="http://www.w3.org/1999/xlink" x="0px" y="0px"
	 viewBox="0 0 596 306.3" style="enable-background:new 0 0 596 306.3;" xml:space="preserve">
<style type="text/css">
	.st0{fill:none;stroke:#000000;stroke-width:2;stroke-linejoin:round;stroke-miterlimit:10;}
	.st1{fill:#FF0000;stroke:#000000;stroke-width:2;stroke-linejoin:round;stroke-miterlimit:10;}
	.st2{fill:none;stroke:#000000;stroke-linecap:square;stroke-linejoin:round;stroke-miterlimit:10;}
	.st3{font-family:'MyriadPro-Regular';}
	.st4{font-size:14px;}
	.st5{display:none;fill:none;stroke:#0072BD;stroke-width:2.0003;stroke-linejoin:round;stroke-miterlimit:10;}
	.st6{fill:none;stroke:#0072BD;stroke-width:2.0003;stroke-linejoin:round;}
	.st7{fill:#0072BD;}
	.st8{font-family:'MyriadPro-Bold';}
</style>
<g id="Layer_1">
	<path class="st0" d="M140.9,42.4c2.3-1.9,3.3,8.5,4.6,12.3c2.6,4.8,4.2,15.3,6.1,22.1c0.9,3.5,6.4,7.5,8.2,6.3
		c0.8,3.2,2.3,9.4,3.1,12.6c3.5,14.4,20.3,29.7,23.8,44.1c0.8,0,2.3,0,3.1,0c0.7,3.4,1.4,7.5,3.1,6.3c2.8-0.3,3.1-0.8,4.6,6.3
		c3.2,0.6,4.4-3,6.1,6.3c0.8,0,2.3,0,3.1,0c0.7,3.3,1.4,7.6,3.1,6.3c1.6-1.4,2.4,3.3,3.1,6.3c0.8,0,2.3,0,3.1,0
		c1.9,7.9,13.5,17.3,15.5,25.2c0.8,3.2,1.4,7.6,3.1,6.3c1.9,0,4.2,0,6.1,0l0.4-0.6l12.9-24.8l13.7-19.8l13.7-15.4l13.7-12.2
		l13.7-9.8l13.7-7.9l13.7-6.4l13.7-5.2l13.7-4.3l13.7-3.5l13.7-2.9l13.7-2.3l13.7-1.9l13.7-1.6l13.7-1.3l13.7-1.1l13.7-0.9l13.7-0.8
		l13.7-0.7l13.7-0.6l13.7-0.5l13.7,34.7l13.7,34.8l13.7,34.8"/>
	<circle class="st1" cx="529.3" cy="78.2" r="11"/>
</g>
<g id="Layer_2">
	<path class="st2" d="M110.1,247.3h449.3 M146.7,247.3v-8.4 M215.2,247.3v-8.4 M283.7,247.3v-8.4 M352.2,247.3v-8.4 M420.8,247.3
		v-8.4 M489.2,247.3v-8.4"/>
	<text transform="matrix(1 0 0 1 97.3343 255.0206)" class="st3 st4">0</text>
	<text transform="matrix(1 0 0 1 90.1522 169.2433)" class="st3 st4">50</text>
	<text transform="matrix(1 0 0 1 82.9706 83.4816)" class="st3 st4">100</text>
	<polyline class="st5" points="260.6,429.3 333.9,452.8 407.2,505.3 480.4,531.3 700.3,456.1 773.5,422.8 993.4,405.6 	"/>
	<g>
		<g>
			<line class="st6" x1="146.7" y1="73" x2="146.7" y2="99.6"/>
			<g>
				<rect x="143.7" y="72" class="st7" width="6.1" height="2"/>
			</g>
			<g>
				<rect x="143.7" y="98.6" class="st7" width="6.1" height="2"/>
			</g>
		</g>
	</g>
	<g>
		<g>
			<line class="st6" x1="181.1" y1="108.9" x2="181.1" y2="135.5"/>
			<g>
				<rect x="178" y="107.9" class="st7" width="6.1" height="2"/>
			</g>
			<g>
				<rect x="178" y="134.5" class="st7" width="6.1" height="2"/>
			</g>
		</g>
	</g>
	<g>
		<g>
			<line class="st6" x1="215" y1="160.5" x2="215" y2="187.2"/>
			<g>
				<rect x="211.9" y="159.5" class="st7" width="6.1" height="2"/>
			</g>
			<g>
				<rect x="211.9" y="186.2" class="st7" width="6.1" height="2"/>
			</g>
		</g>
	</g>
	<g>
		<g>
			<line class="st6" x1="249.5" y1="185.4" x2="249.5" y2="212"/>
			<g>
				<rect x="246.4" y="184.4" class="st7" width="6.1" height="2"/>
			</g>
			<g>
				<rect x="246.4" y="211" class="st7" width="6.1" height="2"/>
			</g>
		</g>
	</g>
	<g>
		<g>
			<line class="st6" x1="352.2" y1="113.2" x2="352.2" y2="139.9"/>
			<g>
				<rect x="349.2" y="112.2" class="st7" width="6.1" height="2"/>
			</g>
			<g>
				<rect x="349.2" y="138.9" class="st7" width="6.1" height="2"/>
			</g>
		</g>
	</g>
	<g>
		<g>
			<line class="st6" x1="386.6" y1="79.2" x2="386.6" y2="105.9"/>
			<g>
				<rect x="383.6" y="78.2" class="st7" width="6.1" height="2"/>
			</g>
			<g>
				<rect x="383.6" y="104.9" class="st7" width="6.1" height="2"/>
			</g>
		</g>
	</g>
	<g>
		<g>
			<line class="st6" x1="489.2" y1="62.4" x2="489.2" y2="89.1"/>
			<g>
				<rect x="486.2" y="61.4" class="st7" width="6.1" height="2"/>
			</g>
			<g>
				<rect x="486.2" y="88.1" class="st7" width="6.1" height="2"/>
			</g>
		</g>
	</g>
	<text transform="matrix(1 0 0 1 334.7668 153.1497)" class="st7 st8 st4">Tama delta</text>
	<text transform="matrix(1 0 0 1 152.4 54)" class="st8 st4">model</text>
	<text transform="matrix(1 0 0 1 123.2697 263.5789)" class="st3 st4">-10,000</text>
	<text transform="matrix(1 0 0 1 195.9431 263.5794)" class="st3 st4">-8,000</text>
	<text transform="matrix(1 0 0 1 265.0259 263.579)" class="st3 st4">-6,000</text>
	<text transform="matrix(1 0 0 1 334.1083 263.5792)" class="st3 st4">-4,000</text>
	<text transform="matrix(1 0 0 1 403.1914 263.5791)" class="st3 st4">-2,000</text>
	<text transform="matrix(1 0 0 1 486.6444 263.5791)" class="st3 st4">0</text>
	<text transform="matrix(1 0 0 1 256.487 292.6764)" class="st3 st4">Time (years before present)</text>
	<text transform="matrix(6.123234e-17 -1 1 6.123234e-17 69.4993 273.4463)" class="st3 st4">Delta shoreline location (relative to today)</text>
	<line class="st2" x1="110.1" y1="247.3" x2="110.1" y2="46"/>
	<line class="st2" x1="110.1" y1="165" x2="113.9" y2="165"/>
	<line class="st2" x1="110.1" y1="79.3" x2="113.9" y2="79.3"/>
	<text transform="matrix(1 0 0 1 539.3335 263.5788)" class="st3 st4">+2,000</text>
	<line class="st2" x1="559.4" y1="247.2" x2="559.4" y2="238.8"/>
	<text transform="matrix(1 0 0 1 514.2833 60.2526)" class="st8 st4">autoretreat?</text>
</g>
</svg>
